<svg id="svg__fa-search" width="20" height="20" fill="#ffffff" xmlns="http://www.w3.org/2000/svg" viewBox="0 0 512 512" style="vertical-align:middle;"><path d="M508.475,468.877,387.081,347.483a11.868,11.868,0,0,0-8.5-3.5h-13.2a207.427,207.427,0,0,0,50.6-135.993C415.98,93.1,322.884,0,207.99,0S0,93.1,0,207.99,93.1,415.98,207.99,415.98a207.427,207.427,0,0,0,135.993-50.6v13.2a12.3,12.3,0,0,0,3.5,8.5L468.877,508.475a12.01,12.01,0,0,0,17,0l22.6-22.6A12.01,12.01,0,0,0,508.475,468.877ZM207.99,367.982A159.992,159.992,0,1,1,367.982,207.99,159.948,159.948,0,0,1,207.99,367.982Z" /></svg>
