<svg id="svg__fa-stethoscope" width="20" height="20" fill="#ffffff" xmlns="http://www.w3.org/2000/svg" viewBox="0 0 512.002 511.979" style="vertical-align:middle;"><path d="M120,334v18c0,88.2,75.4,160,168,160s168-71.8,168-160V252.3a80.031,80.031,0,0,0,56-75.7c.3-43.4-34.6-79.6-78.1-80.6A80,80,0,0,0,408,252.3V352c0,61.8-53.8,112-120,112S168,413.8,168,352V334c68-11.5,120-70.8,120-142V27.5a11.981,11.981,0,0,0-9.4-11.7L208.9.3a11.948,11.948,0,0,0-14.3,9.1l-5.2,23.4a11.948,11.948,0,0,0,9.1,14.3L240,56.3V190.7c0,52.9-42.2,96.7-95.1,97.2A95.944,95.944,0,0,1,48,192V56.4l41.5-9.2a11.948,11.948,0,0,0,9.1-14.3L93.4,9.4A12,12,0,0,0,79.1.3L9.4,15.8A11.981,11.981,0,0,0,0,27.5V192C0,263.2,52,322.5,120,334ZM432,144a32,32,0,1,1-32,32A32.094,32.094,0,0,1,432,144Z" transform="translate(0 -0.021)" /></svg>
